G04 EAGLE Gerber RS-274X export*
G75*
%MOMM*%
%FSLAX34Y34*%
%LPD*%
%INTop Copper*%
%IPPOS*%
%AMOC8*
5,1,8,0,0,1.08239X$1,22.5*%
G01*
G04 Define Apertures*
%ADD10R,10.400000X16.000000*%
%ADD11C,2.100000*%
%ADD12C,1.559600*%
%ADD13R,3.463400X1.631400*%
%ADD14R,1.972200X0.588200*%
%ADD15R,2.286000X3.550000*%
%ADD16C,1.269600*%
%ADD17C,1.809600*%
%ADD18C,1.509600*%
%ADD19C,0.990600*%
%ADD20C,1.409600*%
%ADD21C,0.254000*%
%ADD22C,0.654800*%
%ADD23C,1.651000*%
%ADD24C,0.508000*%
%ADD25C,0.609600*%
G36*
X535475Y10220D02*
X535178Y10160D01*
X10922Y10160D01*
X10647Y10211D01*
X10392Y10375D01*
X10220Y10625D01*
X10160Y10922D01*
X10160Y509678D01*
X10211Y509953D01*
X10375Y510208D01*
X10625Y510380D01*
X10922Y510440D01*
X159743Y510440D01*
X160001Y510395D01*
X160260Y510238D01*
X160437Y509992D01*
X160505Y509696D01*
X160452Y509398D01*
X160286Y509144D01*
X160035Y508974D01*
X159663Y508820D01*
X156020Y505177D01*
X154048Y500416D01*
X154048Y495264D01*
X156020Y490503D01*
X157603Y488920D01*
X157766Y488679D01*
X157826Y488382D01*
X157826Y456956D01*
X157770Y456670D01*
X157603Y456417D01*
X153703Y452516D01*
X151548Y447315D01*
X151548Y441799D01*
X151492Y441513D01*
X151325Y441260D01*
X149962Y439897D01*
X149720Y439734D01*
X149423Y439674D01*
X123159Y439674D01*
X122873Y439730D01*
X122620Y439897D01*
X119737Y442780D01*
X114976Y444752D01*
X109824Y444752D01*
X105063Y442780D01*
X101420Y439137D01*
X99448Y434376D01*
X99448Y429224D01*
X101420Y424463D01*
X105063Y420820D01*
X109824Y418848D01*
X114976Y418848D01*
X119737Y420820D01*
X122620Y423703D01*
X122861Y423866D01*
X123159Y423926D01*
X132284Y423926D01*
X132553Y423877D01*
X132810Y423716D01*
X132984Y423467D01*
X133046Y423170D01*
X132988Y422872D01*
X131826Y420066D01*
X131826Y332060D01*
X133025Y329166D01*
X148211Y313980D01*
X148438Y313886D01*
X148658Y313746D01*
X148838Y313501D01*
X148908Y313206D01*
X148857Y312907D01*
X148693Y312652D01*
X148443Y312480D01*
X148146Y312420D01*
X141932Y312420D01*
X133395Y303883D01*
X133153Y303720D01*
X133046Y303699D01*
X129873Y302384D01*
X127516Y300027D01*
X126240Y296947D01*
X126240Y293613D01*
X127516Y290533D01*
X129873Y288176D01*
X130340Y287983D01*
X130578Y287826D01*
X130750Y287576D01*
X130810Y287279D01*
X130810Y263222D01*
X166702Y227330D01*
X169159Y227330D01*
X169439Y227277D01*
X169693Y227111D01*
X169863Y226860D01*
X170056Y226393D01*
X172413Y224036D01*
X175493Y222760D01*
X178827Y222760D01*
X181907Y224036D01*
X184264Y226393D01*
X185540Y229473D01*
X185540Y232807D01*
X184264Y235887D01*
X181907Y238244D01*
X178827Y239520D01*
X175493Y239520D01*
X172413Y238244D01*
X170027Y235858D01*
X169797Y235700D01*
X169501Y235635D01*
X169203Y235691D01*
X168950Y235858D01*
X138653Y266155D01*
X138490Y266397D01*
X138430Y266694D01*
X138430Y287279D01*
X138483Y287559D01*
X138649Y287813D01*
X138900Y287983D01*
X139367Y288176D01*
X141724Y290533D01*
X143000Y293613D01*
X143000Y296947D01*
X141724Y300027D01*
X141558Y300193D01*
X141400Y300423D01*
X141335Y300719D01*
X141391Y301017D01*
X141558Y301270D01*
X144865Y304577D01*
X145107Y304740D01*
X145404Y304800D01*
X156153Y304800D01*
X156439Y304744D01*
X156692Y304577D01*
X157631Y303637D01*
X178816Y303637D01*
X179091Y303586D01*
X179346Y303422D01*
X179518Y303172D01*
X179578Y302875D01*
X179578Y302260D01*
X179527Y301985D01*
X179363Y301730D01*
X179113Y301558D01*
X178816Y301498D01*
X167222Y301498D01*
X165878Y300941D01*
X165586Y300883D01*
X157631Y300883D01*
X156441Y299693D01*
X156441Y292127D01*
X157631Y290937D01*
X161984Y290937D01*
X162259Y290886D01*
X162514Y290722D01*
X162686Y290472D01*
X162746Y290175D01*
X162746Y274414D01*
X163597Y272361D01*
X168557Y267401D01*
X168720Y267159D01*
X168780Y266862D01*
X168780Y265033D01*
X170056Y261953D01*
X172413Y259596D01*
X175493Y258320D01*
X177322Y258320D01*
X177608Y258264D01*
X177861Y258097D01*
X207549Y228409D01*
X207712Y228167D01*
X207772Y227870D01*
X207772Y186408D01*
X208623Y184355D01*
X241717Y151261D01*
X241880Y151019D01*
X241940Y150722D01*
X241940Y148054D01*
X243322Y144717D01*
X245877Y142162D01*
X249214Y140780D01*
X252826Y140780D01*
X256163Y142162D01*
X258050Y144049D01*
X258291Y144212D01*
X258589Y144272D01*
X275432Y144272D01*
X277485Y145123D01*
X294191Y161829D01*
X294433Y161992D01*
X294730Y162052D01*
X325611Y162052D01*
X325897Y161996D01*
X326150Y161829D01*
X328037Y159942D01*
X331374Y158560D01*
X334042Y158560D01*
X334328Y158504D01*
X334581Y158337D01*
X349789Y143129D01*
X349952Y142887D01*
X350012Y142590D01*
X350012Y113188D01*
X350863Y111135D01*
X365135Y96863D01*
X367188Y96012D01*
X378370Y96012D01*
X378656Y95956D01*
X378909Y95789D01*
X387889Y86809D01*
X388052Y86567D01*
X388112Y86270D01*
X388112Y60987D01*
X388059Y60707D01*
X387893Y60453D01*
X387642Y60283D01*
X387424Y60193D01*
X384307Y57076D01*
X382620Y53004D01*
X382620Y48596D01*
X384307Y44524D01*
X387424Y41407D01*
X391496Y39720D01*
X395904Y39720D01*
X399976Y41407D01*
X403093Y44524D01*
X404780Y48596D01*
X404780Y53004D01*
X403093Y57076D01*
X399976Y60193D01*
X399758Y60283D01*
X399520Y60440D01*
X399348Y60690D01*
X399288Y60987D01*
X399288Y90012D01*
X398437Y92065D01*
X384165Y106337D01*
X382112Y107188D01*
X370930Y107188D01*
X370644Y107244D01*
X370391Y107411D01*
X361411Y116391D01*
X361248Y116633D01*
X361188Y116930D01*
X361188Y146332D01*
X360337Y148385D01*
X342483Y166239D01*
X342320Y166481D01*
X342260Y166778D01*
X342260Y169446D01*
X340878Y172783D01*
X338323Y175338D01*
X334986Y176720D01*
X331374Y176720D01*
X328037Y175338D01*
X326150Y173451D01*
X325909Y173288D01*
X325611Y173228D01*
X290988Y173228D01*
X288935Y172377D01*
X272229Y155671D01*
X271987Y155508D01*
X271690Y155448D01*
X258589Y155448D01*
X258303Y155504D01*
X258050Y155671D01*
X256163Y157558D01*
X252826Y158940D01*
X250158Y158940D01*
X249872Y158996D01*
X249619Y159163D01*
X219171Y189611D01*
X219008Y189853D01*
X218948Y190150D01*
X218948Y231612D01*
X218097Y233665D01*
X185763Y265999D01*
X185600Y266241D01*
X185540Y266538D01*
X185540Y268367D01*
X184264Y271447D01*
X181907Y273804D01*
X178827Y275080D01*
X176998Y275080D01*
X176712Y275136D01*
X176459Y275303D01*
X174145Y277617D01*
X173982Y277859D01*
X173922Y278156D01*
X173922Y289560D01*
X173973Y289835D01*
X174137Y290090D01*
X174387Y290262D01*
X174684Y290322D01*
X182722Y290322D01*
X184775Y291173D01*
X188557Y294955D01*
X188799Y295118D01*
X189096Y295178D01*
X205091Y295178D01*
X205366Y295127D01*
X205621Y294963D01*
X205793Y294713D01*
X205853Y294416D01*
X205853Y292127D01*
X207043Y290937D01*
X228449Y290937D01*
X229389Y291877D01*
X229630Y292040D01*
X229927Y292100D01*
X233957Y292100D01*
X234232Y292049D01*
X234487Y291885D01*
X234659Y291635D01*
X234686Y291502D01*
X237827Y288360D01*
X242223Y288360D01*
X245331Y291468D01*
X245331Y295864D01*
X242223Y298972D01*
X240423Y298972D01*
X240137Y299028D01*
X239884Y299195D01*
X239359Y299720D01*
X232837Y299720D01*
X232574Y299767D01*
X232316Y299926D01*
X232140Y300174D01*
X232075Y300470D01*
X232131Y300768D01*
X232298Y301021D01*
X233206Y301928D01*
X233298Y302151D01*
X233454Y302389D01*
X233705Y302561D01*
X234002Y302621D01*
X245135Y302621D01*
X248029Y303820D01*
X254985Y310776D01*
X255205Y310929D01*
X255500Y310999D01*
X255799Y310948D01*
X256054Y310785D01*
X256226Y310535D01*
X256286Y310237D01*
X256286Y295614D01*
X257485Y292720D01*
X290180Y260025D01*
X293074Y258826D01*
X428639Y258826D01*
X428919Y258773D01*
X429174Y258607D01*
X429343Y258356D01*
X429900Y257011D01*
X434711Y252200D01*
X440998Y249596D01*
X447802Y249596D01*
X452038Y251350D01*
X452299Y251408D01*
X452598Y251359D01*
X452855Y251198D01*
X453028Y250949D01*
X453091Y250652D01*
X453033Y250355D01*
X452796Y249782D01*
X452796Y242978D01*
X455400Y236691D01*
X460211Y231880D01*
X466498Y229276D01*
X473302Y229276D01*
X479487Y231838D01*
X479755Y231896D01*
X480054Y231845D01*
X480309Y231681D01*
X480481Y231431D01*
X480541Y231134D01*
X480541Y209283D01*
X480490Y209008D01*
X480326Y208753D01*
X480076Y208581D01*
X479779Y208521D01*
X476669Y208521D01*
X474242Y207516D01*
X472384Y205658D01*
X471379Y203231D01*
X471379Y184289D01*
X472382Y181868D01*
X472440Y181576D01*
X472440Y148624D01*
X472382Y148332D01*
X471379Y145911D01*
X471379Y145076D01*
X471328Y144801D01*
X471164Y144546D01*
X470914Y144374D01*
X470617Y144314D01*
X466577Y144314D01*
X466291Y144370D01*
X466038Y144537D01*
X450057Y160518D01*
X449894Y160760D01*
X449834Y161057D01*
X449834Y220006D01*
X448635Y222900D01*
X426100Y245435D01*
X423206Y246634D01*
X255614Y246634D01*
X252720Y245435D01*
X251600Y244315D01*
X251358Y244152D01*
X251061Y244092D01*
X246984Y244092D01*
X242223Y242120D01*
X238580Y238477D01*
X236608Y233716D01*
X236608Y228564D01*
X238580Y223803D01*
X242223Y220160D01*
X246984Y218188D01*
X252136Y218188D01*
X256897Y220160D01*
X260540Y223803D01*
X262512Y228564D01*
X262512Y230124D01*
X262563Y230399D01*
X262727Y230654D01*
X262977Y230826D01*
X263274Y230886D01*
X418063Y230886D01*
X418349Y230830D01*
X418602Y230663D01*
X433863Y215402D01*
X434026Y215160D01*
X434086Y214863D01*
X434086Y155914D01*
X435285Y153020D01*
X458540Y129765D01*
X461434Y128566D01*
X470617Y128566D01*
X470892Y128515D01*
X471147Y128351D01*
X471319Y128101D01*
X471379Y127804D01*
X471379Y126969D01*
X472384Y124542D01*
X474242Y122684D01*
X476669Y121679D01*
X479679Y121679D01*
X479954Y121628D01*
X480209Y121464D01*
X480381Y121214D01*
X480441Y120917D01*
X480441Y43279D01*
X480383Y42988D01*
X479648Y41213D01*
X479648Y34987D01*
X482031Y29234D01*
X486434Y24831D01*
X492187Y22448D01*
X498413Y22448D01*
X504166Y24831D01*
X508569Y29234D01*
X509495Y31470D01*
X509640Y31696D01*
X509886Y31873D01*
X510181Y31940D01*
X510480Y31887D01*
X510734Y31722D01*
X510824Y31588D01*
X514136Y28276D01*
X518395Y26512D01*
X518668Y26512D01*
X518668Y49688D01*
X518395Y49688D01*
X514136Y47924D01*
X511460Y45248D01*
X511240Y45095D01*
X510945Y45025D01*
X510646Y45076D01*
X510391Y45239D01*
X510219Y45489D01*
X510159Y45787D01*
X510159Y120917D01*
X510210Y121192D01*
X510374Y121447D01*
X510624Y121619D01*
X510921Y121679D01*
X513931Y121679D01*
X516358Y122684D01*
X518216Y124542D01*
X519221Y126969D01*
X519221Y145911D01*
X518218Y148332D01*
X518160Y148624D01*
X518160Y181576D01*
X518218Y181868D01*
X519221Y184289D01*
X519221Y203231D01*
X518216Y205658D01*
X516358Y207516D01*
X513931Y208521D01*
X511021Y208521D01*
X510746Y208572D01*
X510491Y208736D01*
X510319Y208986D01*
X510259Y209283D01*
X510259Y257726D01*
X510317Y258018D01*
X512504Y263298D01*
X512504Y270102D01*
X509900Y276389D01*
X505089Y281200D01*
X503744Y281757D01*
X503506Y281914D01*
X503334Y282164D01*
X503274Y282461D01*
X503274Y291026D01*
X502075Y293920D01*
X492140Y303855D01*
X489246Y305054D01*
X412517Y305054D01*
X412231Y305110D01*
X411978Y305277D01*
X399257Y317998D01*
X399094Y318240D01*
X399034Y318537D01*
X399034Y369866D01*
X398838Y370339D01*
X398780Y370631D01*
X398780Y509678D01*
X398831Y509953D01*
X398995Y510208D01*
X399245Y510380D01*
X399542Y510440D01*
X535178Y510440D01*
X535453Y510389D01*
X535708Y510225D01*
X535880Y509975D01*
X535940Y509678D01*
X535940Y412321D01*
X535889Y412046D01*
X535725Y411791D01*
X535475Y411619D01*
X535178Y411559D01*
X529266Y411559D01*
X528991Y411610D01*
X528736Y411774D01*
X528564Y412024D01*
X528504Y412321D01*
X528504Y478014D01*
X527499Y480441D01*
X525641Y482299D01*
X523214Y483304D01*
X416586Y483304D01*
X414159Y482299D01*
X412301Y480441D01*
X411296Y478014D01*
X411296Y315386D01*
X412301Y312959D01*
X414159Y311101D01*
X416586Y310096D01*
X523214Y310096D01*
X525641Y311101D01*
X527499Y312959D01*
X528504Y315386D01*
X528504Y381079D01*
X528555Y381354D01*
X528719Y381609D01*
X528969Y381781D01*
X529266Y381841D01*
X535178Y381841D01*
X535453Y381790D01*
X535708Y381626D01*
X535880Y381376D01*
X535940Y381079D01*
X535940Y10922D01*
X535889Y10647D01*
X535725Y10392D01*
X535475Y10220D01*
G37*
%LPC*%
G36*
X42032Y433832D02*
X48779Y433832D01*
X47535Y436835D01*
X45035Y439335D01*
X42032Y440579D01*
X42032Y433832D01*
G37*
G36*
X31221Y433832D02*
X37968Y433832D01*
X37968Y440579D01*
X34965Y439335D01*
X32465Y436835D01*
X31221Y433832D01*
G37*
G36*
X34965Y424265D02*
X37968Y423021D01*
X37968Y429768D01*
X31221Y429768D01*
X32465Y426765D01*
X34965Y424265D01*
G37*
G36*
X42032Y429768D02*
X42032Y423021D01*
X45035Y424265D01*
X47535Y426765D01*
X48779Y429768D01*
X42032Y429768D01*
G37*
G36*
X65532Y369732D02*
X73578Y369732D01*
X72052Y373414D01*
X69214Y376252D01*
X65532Y377778D01*
X65532Y369732D01*
G37*
G36*
X53423Y369732D02*
X61468Y369732D01*
X61468Y377778D01*
X57786Y376252D01*
X54948Y373414D01*
X53423Y369732D01*
G37*
G36*
X57786Y359148D02*
X61468Y357623D01*
X61468Y365668D01*
X53423Y365668D01*
X54948Y361986D01*
X57786Y359148D01*
G37*
G36*
X65532Y365668D02*
X65532Y357623D01*
X69214Y359148D01*
X72052Y361986D01*
X73578Y365668D01*
X65532Y365668D01*
G37*
G36*
X23733Y167520D02*
X27067Y167520D01*
X30147Y168796D01*
X32504Y171153D01*
X33780Y174233D01*
X33780Y177567D01*
X32504Y180647D01*
X30147Y183004D01*
X29680Y183197D01*
X29442Y183354D01*
X29270Y183604D01*
X29210Y183901D01*
X29210Y201306D01*
X29266Y201592D01*
X29433Y201845D01*
X39455Y211867D01*
X39697Y212030D01*
X39994Y212090D01*
X51389Y212090D01*
X51669Y212037D01*
X51924Y211871D01*
X52093Y211620D01*
X52627Y210332D01*
X55392Y207567D01*
X59005Y206070D01*
X62915Y206070D01*
X66528Y207567D01*
X69293Y210332D01*
X70790Y213945D01*
X70790Y215690D01*
X70839Y215959D01*
X71000Y216216D01*
X71249Y216389D01*
X71546Y216452D01*
X71844Y216394D01*
X76647Y214405D01*
X76872Y214260D01*
X77049Y214015D01*
X77117Y213719D01*
X77064Y213420D01*
X76898Y213166D01*
X76647Y212997D01*
X74154Y211964D01*
X71246Y209056D01*
X69672Y205256D01*
X69672Y205232D01*
X90348Y205232D01*
X90348Y205256D01*
X88774Y209056D01*
X85866Y211964D01*
X83373Y212997D01*
X83148Y213141D01*
X82971Y213387D01*
X82903Y213682D01*
X82957Y213981D01*
X83122Y214235D01*
X83373Y214405D01*
X88168Y216391D01*
X88532Y216755D01*
X88763Y216913D01*
X89059Y216978D01*
X89357Y216922D01*
X89610Y216755D01*
X96043Y210322D01*
X96206Y210080D01*
X96266Y209783D01*
X96266Y196819D01*
X96210Y196533D01*
X96043Y196280D01*
X93160Y193397D01*
X91188Y188636D01*
X91188Y183484D01*
X93160Y178723D01*
X96803Y175080D01*
X101564Y173108D01*
X106716Y173108D01*
X111477Y175080D01*
X115120Y178723D01*
X117092Y183484D01*
X117092Y188636D01*
X115120Y193397D01*
X112237Y196280D01*
X112074Y196521D01*
X112014Y196819D01*
X112014Y209783D01*
X112070Y210069D01*
X112237Y210322D01*
X116698Y214783D01*
X116940Y214946D01*
X117237Y215006D01*
X123862Y215006D01*
X124147Y214950D01*
X124400Y214783D01*
X127283Y211900D01*
X132044Y209928D01*
X137196Y209928D01*
X141957Y211900D01*
X145600Y215543D01*
X147572Y220304D01*
X147572Y225456D01*
X145600Y230217D01*
X141957Y233860D01*
X137196Y235832D01*
X132044Y235832D01*
X127283Y233860D01*
X124400Y230977D01*
X124159Y230814D01*
X123862Y230754D01*
X112094Y230754D01*
X109200Y229555D01*
X104679Y225034D01*
X104448Y224876D01*
X104152Y224811D01*
X103854Y224867D01*
X103601Y225034D01*
X93360Y235275D01*
X93016Y235418D01*
X92773Y235579D01*
X92604Y235830D01*
X92219Y236758D01*
X88168Y240809D01*
X82875Y243002D01*
X77145Y243002D01*
X71852Y240809D01*
X67801Y236758D01*
X65608Y231465D01*
X65608Y225755D01*
X65559Y225486D01*
X65398Y225229D01*
X65149Y225056D01*
X64852Y224993D01*
X64554Y225051D01*
X62915Y225730D01*
X59005Y225730D01*
X58760Y225629D01*
X58397Y225574D01*
X58107Y225662D01*
X57874Y225857D01*
X54777Y229728D01*
X54670Y229907D01*
X54610Y230204D01*
X54610Y278106D01*
X54666Y278392D01*
X54833Y278645D01*
X59618Y283430D01*
X59854Y283590D01*
X60150Y283653D01*
X60448Y283595D01*
X61594Y283120D01*
X65406Y283120D01*
X68927Y284578D01*
X71622Y287273D01*
X73080Y290794D01*
X73080Y294606D01*
X71622Y298127D01*
X68927Y300822D01*
X65406Y302280D01*
X61594Y302280D01*
X58073Y300822D01*
X55378Y298127D01*
X53920Y294606D01*
X53920Y290794D01*
X54395Y289648D01*
X54453Y289369D01*
X54397Y289071D01*
X54230Y288818D01*
X46990Y281578D01*
X46990Y228853D01*
X46985Y228769D01*
X46838Y227446D01*
X46930Y227293D01*
X46983Y227028D01*
X47927Y226085D01*
X47983Y226022D01*
X52004Y220996D01*
X52108Y220823D01*
X52171Y220526D01*
X52113Y220229D01*
X52093Y220181D01*
X51936Y219942D01*
X51686Y219770D01*
X51389Y219710D01*
X36522Y219710D01*
X21590Y204778D01*
X21590Y183901D01*
X21537Y183621D01*
X21371Y183367D01*
X21120Y183197D01*
X20653Y183004D01*
X18296Y180647D01*
X17020Y177567D01*
X17020Y174233D01*
X18296Y171153D01*
X20653Y168796D01*
X23733Y167520D01*
G37*
G36*
X240781Y268732D02*
X247528Y268732D01*
X247528Y275479D01*
X244525Y274235D01*
X242025Y271735D01*
X240781Y268732D01*
G37*
G36*
X251592Y268732D02*
X258339Y268732D01*
X257095Y271735D01*
X254595Y274235D01*
X251592Y275479D01*
X251592Y268732D01*
G37*
G36*
X244525Y259165D02*
X247528Y257921D01*
X247528Y264668D01*
X240781Y264668D01*
X242025Y261665D01*
X244525Y259165D01*
G37*
G36*
X251592Y264668D02*
X251592Y257921D01*
X254595Y259165D01*
X257095Y261665D01*
X258339Y264668D01*
X251592Y264668D01*
G37*
G36*
X82042Y192862D02*
X82066Y192862D01*
X85866Y194436D01*
X88774Y197344D01*
X90348Y201144D01*
X90348Y201168D01*
X82042Y201168D01*
X82042Y192862D01*
G37*
G36*
X77954Y192862D02*
X77978Y192862D01*
X77978Y201168D01*
X69672Y201168D01*
X69672Y201144D01*
X71246Y197344D01*
X74154Y194436D01*
X77954Y192862D01*
G37*
G36*
X134885Y188092D02*
X141632Y188092D01*
X141632Y194839D01*
X138629Y193595D01*
X136129Y191095D01*
X134885Y188092D01*
G37*
G36*
X145696Y188092D02*
X152443Y188092D01*
X151199Y191095D01*
X148699Y193595D01*
X145696Y194839D01*
X145696Y188092D01*
G37*
G36*
X145696Y184028D02*
X145696Y177281D01*
X148699Y178525D01*
X151199Y181025D01*
X152443Y184028D01*
X145696Y184028D01*
G37*
G36*
X138629Y178525D02*
X141632Y177281D01*
X141632Y184028D01*
X134885Y184028D01*
X136129Y181025D01*
X138629Y178525D01*
G37*
G36*
X378644Y169672D02*
X386148Y169672D01*
X386148Y177176D01*
X382749Y175768D01*
X380052Y173071D01*
X378644Y169672D01*
G37*
G36*
X390212Y169672D02*
X397716Y169672D01*
X396308Y173071D01*
X393611Y175768D01*
X390212Y177176D01*
X390212Y169672D01*
G37*
G36*
X390212Y165608D02*
X390212Y158104D01*
X393611Y159512D01*
X396308Y162209D01*
X397716Y165608D01*
X390212Y165608D01*
G37*
G36*
X382749Y159512D02*
X386148Y158104D01*
X386148Y165608D01*
X378644Y165608D01*
X380052Y162209D01*
X382749Y159512D01*
G37*
G36*
X186484Y151892D02*
X193988Y151892D01*
X193988Y159396D01*
X190589Y157988D01*
X187892Y155291D01*
X186484Y151892D01*
G37*
G36*
X198052Y151892D02*
X205556Y151892D01*
X204148Y155291D01*
X201451Y157988D01*
X198052Y159396D01*
X198052Y151892D01*
G37*
G36*
X198052Y147828D02*
X198052Y140324D01*
X201451Y141732D01*
X204148Y144429D01*
X205556Y147828D01*
X198052Y147828D01*
G37*
G36*
X190589Y141732D02*
X193988Y140324D01*
X193988Y147828D01*
X186484Y147828D01*
X187892Y144429D01*
X190589Y141732D01*
G37*
G36*
X150196Y27020D02*
X154604Y27020D01*
X158676Y28707D01*
X161793Y31824D01*
X163480Y35896D01*
X163480Y40304D01*
X161793Y44376D01*
X158676Y47493D01*
X156680Y48320D01*
X156442Y48477D01*
X156270Y48727D01*
X156210Y49024D01*
X156210Y106502D01*
X152016Y110696D01*
X151856Y110932D01*
X151793Y111229D01*
X151851Y111527D01*
X152044Y111993D01*
X152044Y115327D01*
X150768Y118407D01*
X148411Y120764D01*
X145331Y122040D01*
X141997Y122040D01*
X138917Y120764D01*
X136560Y118407D01*
X136367Y117940D01*
X136210Y117702D01*
X135960Y117530D01*
X135663Y117470D01*
X112141Y117470D01*
X111861Y117523D01*
X111607Y117689D01*
X111437Y117940D01*
X111244Y118407D01*
X108887Y120764D01*
X105807Y122040D01*
X102473Y122040D01*
X99393Y120764D01*
X97036Y118407D01*
X95760Y115327D01*
X95760Y111993D01*
X97036Y108913D01*
X99393Y106556D01*
X102473Y105280D01*
X105807Y105280D01*
X108887Y106556D01*
X111244Y108913D01*
X111437Y109380D01*
X111594Y109618D01*
X111844Y109790D01*
X112141Y109850D01*
X135663Y109850D01*
X135943Y109797D01*
X136197Y109631D01*
X136367Y109380D01*
X136560Y108913D01*
X138917Y106556D01*
X141997Y105280D01*
X145331Y105280D01*
X145797Y105473D01*
X146077Y105531D01*
X146375Y105476D01*
X146628Y105308D01*
X148367Y103569D01*
X148530Y103327D01*
X148590Y103030D01*
X148590Y49024D01*
X148537Y48744D01*
X148371Y48489D01*
X148120Y48320D01*
X146124Y47493D01*
X143007Y44376D01*
X141320Y40304D01*
X141320Y35896D01*
X143007Y31824D01*
X146124Y28707D01*
X150196Y27020D01*
G37*
G36*
X51136Y29560D02*
X55544Y29560D01*
X59616Y31247D01*
X62733Y34364D01*
X64420Y38436D01*
X64420Y42844D01*
X62733Y46916D01*
X59616Y50033D01*
X57620Y50860D01*
X57382Y51017D01*
X57210Y51267D01*
X57150Y51564D01*
X57150Y77138D01*
X33752Y100536D01*
X33592Y100772D01*
X33529Y101069D01*
X33587Y101367D01*
X33780Y101833D01*
X33780Y105167D01*
X32504Y108247D01*
X30147Y110604D01*
X27067Y111880D01*
X23733Y111880D01*
X20653Y110604D01*
X18296Y108247D01*
X17020Y105167D01*
X17020Y101833D01*
X18296Y98753D01*
X20653Y96396D01*
X23733Y95120D01*
X27067Y95120D01*
X27533Y95313D01*
X27813Y95371D01*
X28111Y95316D01*
X28364Y95148D01*
X49307Y74205D01*
X49470Y73963D01*
X49530Y73666D01*
X49530Y51564D01*
X49477Y51284D01*
X49311Y51029D01*
X49060Y50860D01*
X47064Y50033D01*
X43947Y46916D01*
X42260Y42844D01*
X42260Y38436D01*
X43947Y34364D01*
X47064Y31247D01*
X51136Y29560D01*
G37*
G36*
X288987Y35148D02*
X295213Y35148D01*
X300966Y37531D01*
X305369Y41934D01*
X307752Y47687D01*
X307752Y53913D01*
X305369Y59666D01*
X300966Y64069D01*
X295213Y66452D01*
X288987Y66452D01*
X283234Y64069D01*
X278831Y59666D01*
X276448Y53913D01*
X276448Y47687D01*
X278831Y41934D01*
X283234Y37531D01*
X288987Y35148D01*
G37*
G36*
X441387Y35148D02*
X447613Y35148D01*
X453366Y37531D01*
X457769Y41934D01*
X460152Y47687D01*
X460152Y53913D01*
X457769Y59666D01*
X453366Y64069D01*
X447613Y66452D01*
X441387Y66452D01*
X435634Y64069D01*
X431231Y59666D01*
X428848Y53913D01*
X428848Y47687D01*
X431231Y41934D01*
X435634Y37531D01*
X441387Y35148D01*
G37*
G36*
X331312Y52832D02*
X340868Y52832D01*
X340868Y62388D01*
X340595Y62388D01*
X336336Y60624D01*
X333076Y57364D01*
X331312Y53105D01*
X331312Y52832D01*
G37*
G36*
X344932Y52832D02*
X354488Y52832D01*
X354488Y53105D01*
X352724Y57364D01*
X349464Y60624D01*
X345205Y62388D01*
X344932Y62388D01*
X344932Y52832D01*
G37*
G36*
X16352Y42672D02*
X25908Y42672D01*
X25908Y52228D01*
X25635Y52228D01*
X21376Y50464D01*
X18116Y47204D01*
X16352Y42945D01*
X16352Y42672D01*
G37*
G36*
X29972Y42672D02*
X39528Y42672D01*
X39528Y42945D01*
X37764Y47204D01*
X34504Y50464D01*
X30245Y52228D01*
X29972Y52228D01*
X29972Y42672D01*
G37*
G36*
X115412Y40132D02*
X124968Y40132D01*
X124968Y49688D01*
X124695Y49688D01*
X120436Y47924D01*
X117176Y44664D01*
X115412Y40405D01*
X115412Y40132D01*
G37*
G36*
X522732Y40132D02*
X532288Y40132D01*
X532288Y40405D01*
X530524Y44664D01*
X527264Y47924D01*
X523005Y49688D01*
X522732Y49688D01*
X522732Y40132D01*
G37*
G36*
X129032Y40132D02*
X138588Y40132D01*
X138588Y40405D01*
X136824Y44664D01*
X133564Y47924D01*
X129305Y49688D01*
X129032Y49688D01*
X129032Y40132D01*
G37*
G36*
X344932Y39212D02*
X345205Y39212D01*
X349464Y40976D01*
X352724Y44236D01*
X354488Y48495D01*
X354488Y48768D01*
X344932Y48768D01*
X344932Y39212D01*
G37*
G36*
X340595Y39212D02*
X340868Y39212D01*
X340868Y48768D01*
X331312Y48768D01*
X331312Y48495D01*
X333076Y44236D01*
X336336Y40976D01*
X340595Y39212D01*
G37*
G36*
X29972Y29052D02*
X30245Y29052D01*
X34504Y30816D01*
X37764Y34076D01*
X39528Y38335D01*
X39528Y38608D01*
X29972Y38608D01*
X29972Y29052D01*
G37*
G36*
X25635Y29052D02*
X25908Y29052D01*
X25908Y38608D01*
X16352Y38608D01*
X16352Y38335D01*
X18116Y34076D01*
X21376Y30816D01*
X25635Y29052D01*
G37*
G36*
X522732Y26512D02*
X523005Y26512D01*
X527264Y28276D01*
X530524Y31536D01*
X532288Y35795D01*
X532288Y36068D01*
X522732Y36068D01*
X522732Y26512D01*
G37*
G36*
X129032Y26512D02*
X129305Y26512D01*
X133564Y28276D01*
X136824Y31536D01*
X138588Y35795D01*
X138588Y36068D01*
X129032Y36068D01*
X129032Y26512D01*
G37*
G36*
X124695Y26512D02*
X124968Y26512D01*
X124968Y36068D01*
X115412Y36068D01*
X115412Y35795D01*
X117176Y31536D01*
X120436Y28276D01*
X124695Y26512D01*
G37*
%LPD*%
G36*
X155118Y330009D02*
X154838Y329951D01*
X154540Y330007D01*
X154287Y330175D01*
X147797Y336665D01*
X147634Y336906D01*
X147574Y337204D01*
X147574Y414923D01*
X147630Y415209D01*
X147797Y415462D01*
X162460Y430125D01*
X162702Y430288D01*
X162999Y430348D01*
X168515Y430348D01*
X173716Y432503D01*
X177697Y436484D01*
X179852Y441685D01*
X179852Y447315D01*
X177697Y452516D01*
X173797Y456417D01*
X173634Y456658D01*
X173574Y456956D01*
X173574Y486035D01*
X173627Y486315D01*
X173793Y486569D01*
X174044Y486739D01*
X174337Y486860D01*
X177980Y490503D01*
X179952Y495264D01*
X179952Y500416D01*
X177980Y505177D01*
X174337Y508820D01*
X173965Y508974D01*
X173744Y509114D01*
X173565Y509359D01*
X173495Y509654D01*
X173546Y509953D01*
X173710Y510208D01*
X173960Y510380D01*
X174257Y510440D01*
X232143Y510440D01*
X232401Y510395D01*
X232660Y510238D01*
X232837Y509992D01*
X232905Y509696D01*
X232852Y509398D01*
X232686Y509144D01*
X232435Y508974D01*
X232063Y508820D01*
X228420Y505177D01*
X226448Y500416D01*
X226448Y495264D01*
X228420Y490503D01*
X232063Y486860D01*
X236824Y484888D01*
X240901Y484888D01*
X241187Y484832D01*
X241440Y484665D01*
X263683Y462422D01*
X263846Y462180D01*
X263906Y461883D01*
X263906Y427694D01*
X265105Y424800D01*
X266477Y423428D01*
X266640Y423186D01*
X266700Y422889D01*
X266700Y399257D01*
X266653Y398993D01*
X266494Y398735D01*
X266246Y398560D01*
X265950Y398495D01*
X265652Y398550D01*
X265399Y398718D01*
X261977Y402140D01*
X257216Y404112D01*
X252064Y404112D01*
X247303Y402140D01*
X243660Y398497D01*
X241688Y393736D01*
X241688Y388584D01*
X243660Y383823D01*
X247303Y380180D01*
X252064Y378208D01*
X255524Y378208D01*
X255799Y378157D01*
X256054Y377993D01*
X256226Y377743D01*
X256286Y377446D01*
X256286Y356129D01*
X256239Y355866D01*
X256080Y355608D01*
X255832Y355432D01*
X255536Y355367D01*
X255238Y355423D01*
X254985Y355590D01*
X233060Y377515D01*
X230166Y378714D01*
X206137Y378714D01*
X205851Y378770D01*
X205598Y378937D01*
X195415Y389120D01*
X195252Y389362D01*
X195192Y389659D01*
X195192Y392661D01*
X195248Y392947D01*
X195415Y393200D01*
X197978Y395763D01*
X198220Y395926D01*
X198517Y395986D01*
X212386Y395986D01*
X215280Y397185D01*
X247375Y429280D01*
X248622Y432289D01*
X248630Y432330D01*
X248797Y432583D01*
X252697Y436484D01*
X254852Y441685D01*
X254852Y447315D01*
X252697Y452516D01*
X248716Y456497D01*
X243515Y458652D01*
X237885Y458652D01*
X232684Y456497D01*
X228703Y452516D01*
X226548Y447315D01*
X226548Y441685D01*
X228703Y436484D01*
X229966Y435220D01*
X230124Y434989D01*
X230190Y434693D01*
X230134Y434395D01*
X229966Y434142D01*
X207782Y411957D01*
X207540Y411794D01*
X207243Y411734D01*
X193374Y411734D01*
X190480Y410535D01*
X184280Y404335D01*
X184038Y404172D01*
X183741Y404112D01*
X179664Y404112D01*
X174903Y402140D01*
X171260Y398497D01*
X169288Y393736D01*
X169288Y388584D01*
X171260Y383823D01*
X174903Y380180D01*
X179664Y378208D01*
X183741Y378208D01*
X184027Y378152D01*
X184280Y377985D01*
X198100Y364165D01*
X200994Y362966D01*
X225023Y362966D01*
X225309Y362910D01*
X225562Y362743D01*
X243363Y344942D01*
X243526Y344700D01*
X243586Y344403D01*
X243586Y334953D01*
X243537Y334684D01*
X243376Y334428D01*
X243127Y334254D01*
X242830Y334191D01*
X242532Y334249D01*
X240725Y334998D01*
X236795Y334998D01*
X233165Y333494D01*
X230940Y331269D01*
X230720Y331116D01*
X230425Y331047D01*
X230126Y331097D01*
X229871Y331261D01*
X229699Y331511D01*
X229639Y331808D01*
X229639Y337793D01*
X228449Y338983D01*
X222318Y338983D01*
X222043Y339034D01*
X221788Y339198D01*
X221616Y339448D01*
X221556Y339745D01*
X221556Y343741D01*
X221609Y344021D01*
X221775Y344276D01*
X222026Y344445D01*
X222397Y344598D01*
X224362Y346563D01*
X225425Y349131D01*
X225425Y351909D01*
X224362Y354477D01*
X222397Y356442D01*
X219829Y357505D01*
X217051Y357505D01*
X214483Y356442D01*
X212518Y354477D01*
X211455Y351909D01*
X211455Y349131D01*
X212518Y346563D01*
X213713Y345369D01*
X213876Y345127D01*
X213936Y344830D01*
X213936Y339745D01*
X213885Y339470D01*
X213721Y339215D01*
X213471Y339043D01*
X213174Y338983D01*
X207043Y338983D01*
X205853Y337793D01*
X205853Y335504D01*
X205802Y335229D01*
X205638Y334974D01*
X205388Y334802D01*
X205091Y334742D01*
X181497Y334742D01*
X181222Y334793D01*
X180967Y334957D01*
X180795Y335207D01*
X180735Y335504D01*
X180735Y338003D01*
X179247Y339491D01*
X170366Y339491D01*
X170366Y331978D01*
X155933Y331978D01*
X155933Y330856D01*
X155880Y330576D01*
X155714Y330322D01*
X155463Y330152D01*
X155118Y330009D01*
G37*
%LPC*%
G36*
X155933Y336042D02*
X166302Y336042D01*
X166302Y339491D01*
X157421Y339491D01*
X155933Y338003D01*
X155933Y336042D01*
G37*
%LPD*%
G36*
X478132Y261734D02*
X477835Y261672D01*
X477538Y261730D01*
X473302Y263484D01*
X466498Y263484D01*
X462262Y261730D01*
X462001Y261672D01*
X461702Y261721D01*
X461445Y261882D01*
X461272Y262131D01*
X461209Y262428D01*
X461267Y262725D01*
X461504Y263298D01*
X461504Y270102D01*
X458900Y276389D01*
X454089Y281200D01*
X447802Y283804D01*
X440998Y283804D01*
X434711Y281200D01*
X429900Y276389D01*
X429343Y275044D01*
X429186Y274806D01*
X428936Y274634D01*
X428639Y274574D01*
X399542Y274574D01*
X399267Y274625D01*
X399012Y274789D01*
X398840Y275039D01*
X398780Y275336D01*
X398780Y294365D01*
X398827Y294628D01*
X398986Y294886D01*
X399234Y295062D01*
X399530Y295127D01*
X399828Y295071D01*
X400081Y294904D01*
X404480Y290505D01*
X407374Y289306D01*
X484103Y289306D01*
X484389Y289250D01*
X484642Y289083D01*
X487303Y286422D01*
X487466Y286180D01*
X487526Y285883D01*
X487526Y282461D01*
X487473Y282181D01*
X487307Y281926D01*
X487056Y281757D01*
X485711Y281200D01*
X480900Y276389D01*
X478296Y270102D01*
X478296Y263298D01*
X478533Y262725D01*
X478591Y262464D01*
X478542Y262165D01*
X478381Y261908D01*
X478132Y261734D01*
G37*
D10*
X469900Y396700D03*
D11*
X469900Y246380D03*
X495400Y266700D03*
X444400Y266700D03*
D12*
X60960Y215900D03*
X80010Y203200D03*
X80010Y228600D03*
D13*
X495300Y193760D03*
X495300Y136440D03*
D14*
X168334Y334010D03*
X168334Y321310D03*
X168334Y308610D03*
X168334Y295910D03*
X217746Y295910D03*
X217746Y308610D03*
X217746Y321310D03*
X217746Y334010D03*
D15*
X193040Y314960D03*
D16*
X134620Y222880D03*
X134620Y295280D03*
X104140Y113660D03*
X104140Y186060D03*
X143664Y186060D03*
X143664Y113660D03*
X25400Y175900D03*
X25400Y103500D03*
X254640Y391160D03*
X182240Y391160D03*
X249560Y231140D03*
X177160Y231140D03*
X112400Y431800D03*
X40000Y431800D03*
X239400Y497840D03*
X167000Y497840D03*
D17*
X495300Y38100D03*
X520700Y38100D03*
X127000Y38100D03*
X152400Y38100D03*
X27940Y40640D03*
X53340Y40640D03*
D18*
X165700Y444500D03*
X240700Y444500D03*
D19*
X218440Y350520D03*
D17*
X292100Y50800D03*
X342900Y50800D03*
X393700Y50800D03*
X444500Y50800D03*
D20*
X300160Y327660D03*
X355160Y327660D03*
X310320Y454660D03*
X365320Y454660D03*
X582100Y63500D03*
X637100Y63500D03*
X582100Y330200D03*
X637100Y330200D03*
X569400Y190500D03*
X624400Y190500D03*
X569400Y457200D03*
X624400Y457200D03*
D18*
X63500Y367700D03*
X63500Y292700D03*
D16*
X177160Y266700D03*
X249560Y266700D03*
D20*
X388180Y167640D03*
X333180Y167640D03*
X196020Y149860D03*
X251020Y149860D03*
D21*
X168334Y334010D02*
X168334Y344746D01*
X167640Y345440D01*
D22*
X167640Y345440D03*
X195580Y48260D03*
X15240Y485140D03*
X142240Y502920D03*
X15240Y398780D03*
X15240Y307340D03*
X15240Y226060D03*
X15240Y160020D03*
X15240Y86360D03*
X17780Y17780D03*
X101600Y15240D03*
X215900Y15240D03*
X317500Y15240D03*
X414020Y17780D03*
X508000Y15240D03*
X528320Y134620D03*
X528320Y193040D03*
X528320Y243840D03*
X530860Y302260D03*
X528320Y505460D03*
X403860Y505460D03*
X403860Y325120D03*
X464820Y154940D03*
X378460Y254000D03*
X269240Y269240D03*
X312420Y251460D03*
X180340Y284480D03*
X223520Y248920D03*
X259080Y170180D03*
X261620Y129540D03*
X198120Y210820D03*
X149860Y287020D03*
X124460Y200660D03*
X104140Y238760D03*
X48260Y198120D03*
X121920Y411480D03*
X185420Y469900D03*
X137160Y449580D03*
X251460Y419100D03*
X251460Y368300D03*
X251460Y299720D03*
X233680Y342900D03*
X154940Y378460D03*
X132080Y317500D03*
X467360Y116840D03*
X472440Y63500D03*
X401320Y226060D03*
X307340Y223520D03*
X274320Y223520D03*
X408940Y281940D03*
D21*
X25400Y203200D02*
X25400Y175900D01*
X25400Y203200D02*
X38100Y215900D01*
X60960Y215900D01*
X50800Y280000D02*
X63500Y292700D01*
X50800Y280000D02*
X50800Y228600D01*
X60960Y215900D01*
X80010Y228600D02*
X88900Y228600D01*
X104140Y213360D01*
X104140Y186060D01*
X104140Y213360D02*
X113660Y222880D01*
X134620Y222880D01*
X168280Y231140D02*
X177160Y231140D01*
X168280Y231140D02*
X134620Y264800D01*
X134620Y295280D01*
X134620Y299720D01*
X143510Y308610D01*
X168334Y308610D01*
D22*
X240025Y293666D03*
D21*
X217746Y334010D02*
X217746Y349826D01*
X218440Y350520D01*
X217746Y295910D02*
X237781Y295910D01*
X240025Y293666D01*
X257180Y238760D02*
X421640Y238760D01*
X257180Y238760D02*
X249560Y231140D01*
X421640Y238760D02*
X441960Y218440D01*
X441960Y157480D01*
X463000Y136440D01*
X495300Y136440D01*
D23*
X495300Y38100D01*
D21*
X495400Y266700D02*
X495400Y289460D01*
X487680Y297180D01*
X408940Y297180D01*
X391160Y314960D01*
X391160Y368300D01*
X368300Y391160D01*
X309880Y391160D01*
X271780Y429260D01*
X271780Y465460D01*
X239400Y497840D01*
D23*
X495400Y266700D02*
X495400Y193860D01*
X495300Y193760D01*
D21*
X294640Y266700D02*
X264160Y297180D01*
X294640Y266700D02*
X444400Y266700D01*
X264160Y297180D02*
X264160Y381640D01*
X254640Y391160D01*
X219631Y310495D02*
X217746Y308610D01*
X219631Y310495D02*
X243569Y310495D01*
X251460Y318387D01*
X251460Y347980D01*
X228600Y370840D01*
X202560Y370840D01*
X182240Y391160D01*
X194940Y403860D01*
X210820Y403860D01*
X240700Y433740D01*
X240700Y444500D01*
X152400Y104924D02*
X152400Y38100D01*
X152400Y104924D02*
X143664Y113660D01*
X104140Y113660D01*
X112400Y431800D02*
X153000Y431800D01*
X165700Y444500D01*
X139700Y418500D02*
X139700Y333627D01*
X139700Y418500D02*
X165700Y444500D01*
X165700Y496540D01*
X167000Y497840D01*
X168334Y321310D02*
X167679Y320655D01*
X152672Y320655D01*
X139700Y333627D01*
X53340Y75560D02*
X53340Y40640D01*
X53340Y75560D02*
X25400Y103500D01*
D24*
X217746Y321310D02*
X234950Y321310D01*
X238760Y325120D01*
D22*
X238760Y325120D03*
D23*
X469900Y396700D02*
X544020Y396700D01*
X569400Y422080D01*
X569400Y457200D01*
D25*
X168334Y295910D02*
X168334Y275526D01*
X177160Y266700D01*
X181610Y295910D02*
X168334Y295910D01*
X181610Y295910D02*
X193040Y307340D01*
X193040Y314960D01*
X177160Y266700D02*
X213360Y230500D01*
X213360Y187520D01*
X251020Y149860D01*
X274320Y149860D01*
X292100Y167640D01*
X333180Y167640D01*
X355600Y145220D01*
X355600Y114300D01*
X368300Y101600D01*
X381000Y101600D01*
X393700Y88900D01*
X393700Y50800D01*
M02*
