G04 EAGLE Gerber RS-274X export*
G75*
%MOMM*%
%FSLAX34Y34*%
%LPD*%
%INBottom Copper*%
%IPPOS*%
%AMOC8*
5,1,8,0,0,1.08239X$1,22.5*%
G01*
G04 Define Apertures*
%ADD10C,2.100000*%
%ADD11C,1.559600*%
%ADD12C,1.269600*%
%ADD13C,1.809600*%
%ADD14C,1.509600*%
%ADD15C,0.990600*%
%ADD16C,1.409600*%
%ADD17C,0.654800*%
%ADD18C,0.254000*%
%ADD19C,0.609600*%
%ADD20C,1.651000*%
G36*
X659175Y10220D02*
X658878Y10160D01*
X10922Y10160D01*
X10647Y10211D01*
X10392Y10375D01*
X10220Y10625D01*
X10160Y10922D01*
X10160Y509678D01*
X10211Y509953D01*
X10375Y510208D01*
X10625Y510380D01*
X10922Y510440D01*
X159743Y510440D01*
X160001Y510395D01*
X160260Y510238D01*
X160437Y509992D01*
X160505Y509696D01*
X160452Y509398D01*
X160286Y509144D01*
X160035Y508974D01*
X159663Y508820D01*
X156020Y505177D01*
X154048Y500416D01*
X154048Y495264D01*
X156020Y490503D01*
X159663Y486860D01*
X164424Y484888D01*
X169576Y484888D01*
X174337Y486860D01*
X177980Y490503D01*
X179952Y495264D01*
X179952Y500416D01*
X177980Y505177D01*
X174337Y508820D01*
X173965Y508974D01*
X173744Y509114D01*
X173565Y509359D01*
X173495Y509654D01*
X173546Y509953D01*
X173710Y510208D01*
X173960Y510380D01*
X174257Y510440D01*
X232143Y510440D01*
X232401Y510395D01*
X232660Y510238D01*
X232837Y509992D01*
X232905Y509696D01*
X232852Y509398D01*
X232686Y509144D01*
X232435Y508974D01*
X232063Y508820D01*
X228420Y505177D01*
X226448Y500416D01*
X226448Y495264D01*
X228420Y490503D01*
X232063Y486860D01*
X236824Y484888D01*
X241976Y484888D01*
X246737Y486860D01*
X250380Y490503D01*
X252352Y495264D01*
X252352Y500416D01*
X250380Y505177D01*
X246737Y508820D01*
X246365Y508974D01*
X246144Y509114D01*
X245965Y509359D01*
X245895Y509654D01*
X245946Y509953D01*
X246110Y510208D01*
X246360Y510380D01*
X246657Y510440D01*
X400558Y510440D01*
X400833Y510389D01*
X401088Y510225D01*
X401260Y509975D01*
X401320Y509678D01*
X401320Y383602D01*
X401329Y383547D01*
X401332Y383546D01*
X401372Y383540D01*
X535878Y383540D01*
X535933Y383549D01*
X535934Y383552D01*
X535940Y383592D01*
X535940Y509678D01*
X535991Y509953D01*
X536155Y510208D01*
X536405Y510380D01*
X536702Y510440D01*
X658878Y510440D01*
X659153Y510389D01*
X659408Y510225D01*
X659580Y509975D01*
X659640Y509678D01*
X659640Y10922D01*
X659589Y10647D01*
X659425Y10392D01*
X659175Y10220D01*
G37*
%LPC*%
G36*
X441387Y35148D02*
X447613Y35148D01*
X453366Y37531D01*
X457769Y41934D01*
X460152Y47687D01*
X460152Y53913D01*
X459417Y55688D01*
X459359Y55979D01*
X459359Y67190D01*
X459415Y67476D01*
X459582Y67728D01*
X468212Y76358D01*
X468453Y76521D01*
X468750Y76581D01*
X547690Y76581D01*
X547976Y76525D01*
X548228Y76358D01*
X573683Y50903D01*
X579144Y48641D01*
X585056Y48641D01*
X590517Y50903D01*
X594697Y55083D01*
X596959Y60544D01*
X596959Y180756D01*
X594697Y186217D01*
X549877Y231037D01*
X544416Y233299D01*
X494150Y233299D01*
X493864Y233355D01*
X493612Y233522D01*
X486530Y240604D01*
X486369Y240840D01*
X486307Y241137D01*
X486365Y241434D01*
X487004Y242978D01*
X487004Y249782D01*
X486767Y250355D01*
X486709Y250616D01*
X486758Y250915D01*
X486919Y251172D01*
X487168Y251346D01*
X487465Y251408D01*
X487762Y251350D01*
X491998Y249596D01*
X498802Y249596D01*
X505089Y252200D01*
X509900Y257011D01*
X512504Y263298D01*
X512504Y270102D01*
X509900Y276389D01*
X505089Y281200D01*
X498802Y283804D01*
X491998Y283804D01*
X485813Y281242D01*
X485545Y281184D01*
X485246Y281235D01*
X484991Y281399D01*
X484819Y281649D01*
X484759Y281946D01*
X484759Y293250D01*
X484815Y293536D01*
X484982Y293788D01*
X506312Y315118D01*
X506553Y315281D01*
X506850Y315341D01*
X585056Y315341D01*
X590517Y317603D01*
X594697Y321783D01*
X596959Y327244D01*
X596959Y447456D01*
X594697Y452917D01*
X577817Y469797D01*
X572356Y472059D01*
X566444Y472059D01*
X560983Y469797D01*
X556803Y465617D01*
X554541Y460156D01*
X554541Y454244D01*
X556803Y448783D01*
X567018Y438568D01*
X567181Y438327D01*
X567241Y438030D01*
X567241Y345821D01*
X567190Y345546D01*
X567026Y345291D01*
X566776Y345119D01*
X566479Y345059D01*
X497424Y345059D01*
X491963Y342797D01*
X457303Y308137D01*
X455041Y302676D01*
X455041Y281946D01*
X454992Y281677D01*
X454831Y281420D01*
X454582Y281247D01*
X454285Y281184D01*
X453987Y281242D01*
X447802Y283804D01*
X440998Y283804D01*
X434711Y281200D01*
X429900Y276389D01*
X427296Y270102D01*
X427296Y263298D01*
X429900Y257011D01*
X434711Y252200D01*
X440998Y249596D01*
X447802Y249596D01*
X452038Y251350D01*
X452299Y251408D01*
X452598Y251359D01*
X452855Y251198D01*
X453028Y250949D01*
X453091Y250652D01*
X453033Y250355D01*
X452796Y249782D01*
X452796Y242978D01*
X454983Y237698D01*
X455041Y237406D01*
X455041Y233264D01*
X457303Y227803D01*
X479263Y205843D01*
X484724Y203581D01*
X534990Y203581D01*
X535276Y203525D01*
X535528Y203358D01*
X567018Y171868D01*
X567181Y171627D01*
X567241Y171330D01*
X567241Y101212D01*
X567194Y100949D01*
X567035Y100691D01*
X566787Y100516D01*
X566491Y100451D01*
X566193Y100506D01*
X565940Y100674D01*
X562577Y104037D01*
X557116Y106299D01*
X459324Y106299D01*
X453863Y104037D01*
X431903Y82077D01*
X429641Y76616D01*
X429641Y55979D01*
X429583Y55688D01*
X428848Y53913D01*
X428848Y47687D01*
X431231Y41934D01*
X435634Y37531D01*
X441387Y35148D01*
G37*
G36*
X288987Y35148D02*
X295213Y35148D01*
X300966Y37531D01*
X305369Y41934D01*
X307752Y47687D01*
X307752Y53913D01*
X305369Y59666D01*
X301975Y63060D01*
X301812Y63302D01*
X301752Y63599D01*
X301752Y313246D01*
X301803Y313521D01*
X301967Y313776D01*
X302217Y313948D01*
X302514Y314008D01*
X302876Y314008D01*
X307893Y316086D01*
X311734Y319927D01*
X313812Y324944D01*
X313812Y330376D01*
X311734Y335393D01*
X310035Y337092D01*
X309872Y337333D01*
X309812Y337630D01*
X309812Y440186D01*
X309868Y440472D01*
X310035Y440725D01*
X310095Y440785D01*
X310336Y440948D01*
X310634Y441008D01*
X313036Y441008D01*
X318053Y443086D01*
X321894Y446927D01*
X323972Y451944D01*
X323972Y457376D01*
X321894Y462393D01*
X318053Y466234D01*
X313036Y468312D01*
X307604Y468312D01*
X302587Y466234D01*
X298746Y462393D01*
X296668Y457376D01*
X296668Y454974D01*
X296612Y454688D01*
X296445Y454435D01*
X291977Y449967D01*
X290508Y446420D01*
X290508Y337630D01*
X290452Y337345D01*
X290285Y337092D01*
X288586Y335393D01*
X288524Y335242D01*
X288367Y335004D01*
X288117Y334832D01*
X287820Y334772D01*
X241422Y334772D01*
X241130Y334830D01*
X240725Y334998D01*
X236795Y334998D01*
X233165Y333494D01*
X230386Y330715D01*
X228882Y327085D01*
X228882Y323155D01*
X230386Y319525D01*
X233165Y316746D01*
X236795Y315242D01*
X240725Y315242D01*
X241130Y315410D01*
X241422Y315468D01*
X281686Y315468D01*
X281961Y315417D01*
X282216Y315253D01*
X282388Y315003D01*
X282448Y314706D01*
X282448Y63599D01*
X282392Y63313D01*
X282225Y63060D01*
X278831Y59666D01*
X276448Y53913D01*
X276448Y47687D01*
X278831Y41934D01*
X283234Y37531D01*
X288987Y35148D01*
G37*
G36*
X614864Y459232D02*
X622368Y459232D01*
X622368Y466736D01*
X618969Y465328D01*
X616272Y462631D01*
X614864Y459232D01*
G37*
G36*
X626432Y459232D02*
X633936Y459232D01*
X632528Y462631D01*
X629831Y465328D01*
X626432Y466736D01*
X626432Y459232D01*
G37*
G36*
X355784Y456692D02*
X363288Y456692D01*
X363288Y464196D01*
X359889Y462788D01*
X357192Y460091D01*
X355784Y456692D01*
G37*
G36*
X367352Y456692D02*
X374856Y456692D01*
X373448Y460091D01*
X370751Y462788D01*
X367352Y464196D01*
X367352Y456692D01*
G37*
G36*
X237885Y430348D02*
X243515Y430348D01*
X248716Y432503D01*
X252697Y436484D01*
X254852Y441685D01*
X254852Y447315D01*
X252697Y452516D01*
X248716Y456497D01*
X243515Y458652D01*
X237885Y458652D01*
X232684Y456497D01*
X228703Y452516D01*
X226548Y447315D01*
X226548Y441685D01*
X228703Y436484D01*
X232684Y432503D01*
X237885Y430348D01*
G37*
G36*
X162885Y430348D02*
X168515Y430348D01*
X173716Y432503D01*
X177697Y436484D01*
X179852Y441685D01*
X179852Y447315D01*
X177697Y452516D01*
X173716Y456497D01*
X168515Y458652D01*
X162885Y458652D01*
X157684Y456497D01*
X153703Y452516D01*
X151548Y447315D01*
X151548Y441685D01*
X153703Y436484D01*
X157684Y432503D01*
X162885Y430348D01*
G37*
G36*
X626432Y455168D02*
X626432Y447664D01*
X629831Y449072D01*
X632528Y451769D01*
X633936Y455168D01*
X626432Y455168D01*
G37*
G36*
X618969Y449072D02*
X622368Y447664D01*
X622368Y455168D01*
X614864Y455168D01*
X616272Y451769D01*
X618969Y449072D01*
G37*
G36*
X367352Y452628D02*
X367352Y445124D01*
X370751Y446532D01*
X373448Y449229D01*
X374856Y452628D01*
X367352Y452628D01*
G37*
G36*
X359889Y446532D02*
X363288Y445124D01*
X363288Y452628D01*
X355784Y452628D01*
X357192Y449229D01*
X359889Y446532D01*
G37*
G36*
X109824Y418848D02*
X114976Y418848D01*
X119737Y420820D01*
X123380Y424463D01*
X125352Y429224D01*
X125352Y434376D01*
X123380Y439137D01*
X119737Y442780D01*
X114976Y444752D01*
X109824Y444752D01*
X105063Y442780D01*
X101420Y439137D01*
X99448Y434376D01*
X99448Y429224D01*
X101420Y424463D01*
X105063Y420820D01*
X109824Y418848D01*
G37*
G36*
X31221Y433832D02*
X37968Y433832D01*
X37968Y440579D01*
X34965Y439335D01*
X32465Y436835D01*
X31221Y433832D01*
G37*
G36*
X42032Y433832D02*
X48779Y433832D01*
X47535Y436835D01*
X45035Y439335D01*
X42032Y440579D01*
X42032Y433832D01*
G37*
G36*
X42032Y429768D02*
X42032Y423021D01*
X45035Y424265D01*
X47535Y426765D01*
X48779Y429768D01*
X42032Y429768D01*
G37*
G36*
X34965Y424265D02*
X37968Y423021D01*
X37968Y429768D01*
X31221Y429768D01*
X32465Y426765D01*
X34965Y424265D01*
G37*
G36*
X179664Y378208D02*
X184816Y378208D01*
X189577Y380180D01*
X193220Y383823D01*
X195192Y388584D01*
X195192Y393736D01*
X193220Y398497D01*
X189577Y402140D01*
X184816Y404112D01*
X179664Y404112D01*
X174903Y402140D01*
X171260Y398497D01*
X169288Y393736D01*
X169288Y388584D01*
X171260Y383823D01*
X174903Y380180D01*
X179664Y378208D01*
G37*
G36*
X252064Y378208D02*
X257216Y378208D01*
X261977Y380180D01*
X265620Y383823D01*
X267592Y388584D01*
X267592Y393736D01*
X265620Y398497D01*
X261977Y402140D01*
X257216Y404112D01*
X252064Y404112D01*
X247303Y402140D01*
X243660Y398497D01*
X241688Y393736D01*
X241688Y388584D01*
X243660Y383823D01*
X247303Y380180D01*
X252064Y378208D01*
G37*
G36*
X65532Y369732D02*
X73578Y369732D01*
X72052Y373414D01*
X69214Y376252D01*
X65532Y377778D01*
X65532Y369732D01*
G37*
G36*
X53423Y369732D02*
X61468Y369732D01*
X61468Y377778D01*
X57786Y376252D01*
X54948Y373414D01*
X53423Y369732D01*
G37*
G36*
X57786Y359148D02*
X61468Y357623D01*
X61468Y365668D01*
X53423Y365668D01*
X54948Y361986D01*
X57786Y359148D01*
G37*
G36*
X65532Y365668D02*
X65532Y357623D01*
X69214Y359148D01*
X72052Y361986D01*
X73578Y365668D01*
X65532Y365668D01*
G37*
G36*
X237827Y288360D02*
X242223Y288360D01*
X245331Y291468D01*
X245331Y295864D01*
X242223Y298972D01*
X237827Y298972D01*
X236554Y297699D01*
X236313Y297537D01*
X236016Y297476D01*
X211148Y297476D01*
X210862Y297532D01*
X210609Y297699D01*
X209773Y298535D01*
X209610Y298777D01*
X209550Y299074D01*
X209550Y335926D01*
X209606Y336212D01*
X209773Y336465D01*
X216620Y343312D01*
X216862Y343475D01*
X217159Y343535D01*
X219829Y343535D01*
X222397Y344598D01*
X224362Y346563D01*
X225425Y349131D01*
X225425Y351909D01*
X224362Y354477D01*
X222397Y356442D01*
X219829Y357505D01*
X217051Y357505D01*
X214483Y356442D01*
X212518Y354477D01*
X211455Y351909D01*
X211455Y349239D01*
X211399Y348953D01*
X211232Y348700D01*
X201930Y339398D01*
X201930Y295602D01*
X207676Y289856D01*
X236016Y289856D01*
X236302Y289801D01*
X236554Y289633D01*
X237827Y288360D01*
G37*
G36*
X627564Y332232D02*
X635068Y332232D01*
X635068Y339736D01*
X631669Y338328D01*
X628972Y335631D01*
X627564Y332232D01*
G37*
G36*
X639132Y332232D02*
X646636Y332232D01*
X645228Y335631D01*
X642531Y338328D01*
X639132Y339736D01*
X639132Y332232D01*
G37*
G36*
X345624Y329692D02*
X353128Y329692D01*
X353128Y337196D01*
X349729Y335788D01*
X347032Y333091D01*
X345624Y329692D01*
G37*
G36*
X357192Y329692D02*
X364696Y329692D01*
X363288Y333091D01*
X360591Y335788D01*
X357192Y337196D01*
X357192Y329692D01*
G37*
G36*
X639132Y328168D02*
X639132Y320664D01*
X642531Y322072D01*
X645228Y324769D01*
X646636Y328168D01*
X639132Y328168D01*
G37*
G36*
X631669Y322072D02*
X635068Y320664D01*
X635068Y328168D01*
X627564Y328168D01*
X628972Y324769D01*
X631669Y322072D01*
G37*
G36*
X357192Y325628D02*
X357192Y318124D01*
X360591Y319532D01*
X363288Y322229D01*
X364696Y325628D01*
X357192Y325628D01*
G37*
G36*
X349729Y319532D02*
X353128Y318124D01*
X353128Y325628D01*
X345624Y325628D01*
X347032Y322229D01*
X349729Y319532D01*
G37*
G36*
X132953Y286900D02*
X136287Y286900D01*
X139367Y288176D01*
X141724Y290533D01*
X143000Y293613D01*
X143000Y296947D01*
X141724Y300027D01*
X139367Y302384D01*
X136287Y303660D01*
X132953Y303660D01*
X129873Y302384D01*
X127516Y300027D01*
X126240Y296947D01*
X126240Y293613D01*
X127516Y290533D01*
X129873Y288176D01*
X132953Y286900D01*
G37*
G36*
X61594Y283120D02*
X65406Y283120D01*
X68927Y284578D01*
X71622Y287273D01*
X73080Y290794D01*
X73080Y294606D01*
X71622Y298127D01*
X68927Y300822D01*
X65406Y302280D01*
X61594Y302280D01*
X58073Y300822D01*
X55378Y298127D01*
X53920Y294606D01*
X53920Y290794D01*
X55378Y287273D01*
X58073Y284578D01*
X61594Y283120D01*
G37*
G36*
X240781Y268732D02*
X247528Y268732D01*
X247528Y275479D01*
X244525Y274235D01*
X242025Y271735D01*
X240781Y268732D01*
G37*
G36*
X251592Y268732D02*
X258339Y268732D01*
X257095Y271735D01*
X254595Y274235D01*
X251592Y275479D01*
X251592Y268732D01*
G37*
G36*
X175493Y258320D02*
X178827Y258320D01*
X181907Y259596D01*
X184264Y261953D01*
X185540Y265033D01*
X185540Y268367D01*
X184264Y271447D01*
X181907Y273804D01*
X178827Y275080D01*
X175493Y275080D01*
X172413Y273804D01*
X170056Y271447D01*
X168780Y268367D01*
X168780Y265033D01*
X170056Y261953D01*
X172413Y259596D01*
X175493Y258320D01*
G37*
G36*
X251592Y264668D02*
X251592Y257921D01*
X254595Y259165D01*
X257095Y261665D01*
X258339Y264668D01*
X251592Y264668D01*
G37*
G36*
X244525Y259165D02*
X247528Y257921D01*
X247528Y264668D01*
X240781Y264668D01*
X242025Y261665D01*
X244525Y259165D01*
G37*
G36*
X246984Y218188D02*
X252136Y218188D01*
X256897Y220160D01*
X260540Y223803D01*
X262512Y228564D01*
X262512Y233716D01*
X260540Y238477D01*
X256897Y242120D01*
X252136Y244092D01*
X246984Y244092D01*
X242223Y242120D01*
X238580Y238477D01*
X236608Y233716D01*
X236608Y228564D01*
X238580Y223803D01*
X242223Y220160D01*
X246984Y218188D01*
G37*
G36*
X69672Y205232D02*
X90348Y205232D01*
X90348Y205256D01*
X88774Y209056D01*
X85866Y211964D01*
X83373Y212997D01*
X83148Y213141D01*
X82971Y213387D01*
X82903Y213682D01*
X82957Y213981D01*
X83122Y214235D01*
X83373Y214405D01*
X88168Y216391D01*
X92219Y220442D01*
X94412Y225735D01*
X94412Y231465D01*
X92219Y236758D01*
X88168Y240809D01*
X82875Y243002D01*
X77145Y243002D01*
X71852Y240809D01*
X67801Y236758D01*
X65608Y231465D01*
X65608Y225755D01*
X65559Y225486D01*
X65398Y225229D01*
X65149Y225056D01*
X64852Y224993D01*
X64554Y225051D01*
X62915Y225730D01*
X59005Y225730D01*
X55392Y224233D01*
X52627Y221468D01*
X51130Y217855D01*
X51130Y213945D01*
X52627Y210332D01*
X55392Y207567D01*
X59005Y206070D01*
X62915Y206070D01*
X66528Y207567D01*
X69293Y210332D01*
X70790Y213945D01*
X70790Y215690D01*
X70839Y215959D01*
X71000Y216216D01*
X71249Y216389D01*
X71546Y216452D01*
X71844Y216394D01*
X76647Y214405D01*
X76872Y214260D01*
X77049Y214015D01*
X77117Y213719D01*
X77064Y213420D01*
X76898Y213166D01*
X76647Y212997D01*
X74154Y211964D01*
X71246Y209056D01*
X69672Y205256D01*
X69672Y205232D01*
G37*
G36*
X175493Y222760D02*
X178827Y222760D01*
X181907Y224036D01*
X184264Y226393D01*
X185540Y229473D01*
X185540Y232807D01*
X184264Y235887D01*
X181907Y238244D01*
X178827Y239520D01*
X175493Y239520D01*
X172413Y238244D01*
X170056Y235887D01*
X168780Y232807D01*
X168780Y229473D01*
X170056Y226393D01*
X172413Y224036D01*
X175493Y222760D01*
G37*
G36*
X132044Y209928D02*
X137196Y209928D01*
X141957Y211900D01*
X145600Y215543D01*
X147572Y220304D01*
X147572Y225456D01*
X145600Y230217D01*
X141957Y233860D01*
X137196Y235832D01*
X132044Y235832D01*
X127283Y233860D01*
X123640Y230217D01*
X121668Y225456D01*
X121668Y220304D01*
X123640Y215543D01*
X127283Y211900D01*
X132044Y209928D01*
G37*
G36*
X82042Y192862D02*
X82066Y192862D01*
X85866Y194436D01*
X88774Y197344D01*
X90348Y201144D01*
X90348Y201168D01*
X82042Y201168D01*
X82042Y192862D01*
G37*
G36*
X77954Y192862D02*
X77978Y192862D01*
X77978Y201168D01*
X69672Y201168D01*
X69672Y201144D01*
X71246Y197344D01*
X74154Y194436D01*
X77954Y192862D01*
G37*
G36*
X614864Y192532D02*
X622368Y192532D01*
X622368Y200036D01*
X618969Y198628D01*
X616272Y195931D01*
X614864Y192532D01*
G37*
G36*
X626432Y192532D02*
X633936Y192532D01*
X632528Y195931D01*
X629831Y198628D01*
X626432Y200036D01*
X626432Y192532D01*
G37*
G36*
X101564Y173108D02*
X106716Y173108D01*
X111477Y175080D01*
X115120Y178723D01*
X117092Y183484D01*
X117092Y188636D01*
X115120Y193397D01*
X111477Y197040D01*
X106716Y199012D01*
X101564Y199012D01*
X96803Y197040D01*
X93160Y193397D01*
X91188Y188636D01*
X91188Y183484D01*
X93160Y178723D01*
X96803Y175080D01*
X101564Y173108D01*
G37*
G36*
X134885Y188092D02*
X141632Y188092D01*
X141632Y194839D01*
X138629Y193595D01*
X136129Y191095D01*
X134885Y188092D01*
G37*
G36*
X145696Y188092D02*
X152443Y188092D01*
X151199Y191095D01*
X148699Y193595D01*
X145696Y194839D01*
X145696Y188092D01*
G37*
G36*
X626432Y188468D02*
X626432Y180964D01*
X629831Y182372D01*
X632528Y185069D01*
X633936Y188468D01*
X626432Y188468D01*
G37*
G36*
X618969Y182372D02*
X622368Y180964D01*
X622368Y188468D01*
X614864Y188468D01*
X616272Y185069D01*
X618969Y182372D01*
G37*
G36*
X23733Y167520D02*
X27067Y167520D01*
X30147Y168796D01*
X32504Y171153D01*
X33780Y174233D01*
X33780Y177567D01*
X32504Y180647D01*
X30147Y183004D01*
X27067Y184280D01*
X23733Y184280D01*
X20653Y183004D01*
X18296Y180647D01*
X17020Y177567D01*
X17020Y174233D01*
X18296Y171153D01*
X20653Y168796D01*
X23733Y167520D01*
G37*
G36*
X145696Y184028D02*
X145696Y177281D01*
X148699Y178525D01*
X151199Y181025D01*
X152443Y184028D01*
X145696Y184028D01*
G37*
G36*
X138629Y178525D02*
X141632Y177281D01*
X141632Y184028D01*
X134885Y184028D01*
X136129Y181025D01*
X138629Y178525D01*
G37*
G36*
X378644Y169672D02*
X386148Y169672D01*
X386148Y177176D01*
X382749Y175768D01*
X380052Y173071D01*
X378644Y169672D01*
G37*
G36*
X390212Y169672D02*
X397716Y169672D01*
X396308Y173071D01*
X393611Y175768D01*
X390212Y177176D01*
X390212Y169672D01*
G37*
G36*
X331374Y158560D02*
X334986Y158560D01*
X338323Y159942D01*
X340878Y162497D01*
X342260Y165834D01*
X342260Y169446D01*
X340878Y172783D01*
X338323Y175338D01*
X334986Y176720D01*
X331374Y176720D01*
X328037Y175338D01*
X325482Y172783D01*
X324100Y169446D01*
X324100Y165834D01*
X325482Y162497D01*
X328037Y159942D01*
X331374Y158560D01*
G37*
G36*
X390212Y165608D02*
X390212Y158104D01*
X393611Y159512D01*
X396308Y162209D01*
X397716Y165608D01*
X390212Y165608D01*
G37*
G36*
X382749Y159512D02*
X386148Y158104D01*
X386148Y165608D01*
X378644Y165608D01*
X380052Y162209D01*
X382749Y159512D01*
G37*
G36*
X186484Y151892D02*
X193988Y151892D01*
X193988Y159396D01*
X190589Y157988D01*
X187892Y155291D01*
X186484Y151892D01*
G37*
G36*
X198052Y151892D02*
X205556Y151892D01*
X204148Y155291D01*
X201451Y157988D01*
X198052Y159396D01*
X198052Y151892D01*
G37*
G36*
X249214Y140780D02*
X252826Y140780D01*
X256163Y142162D01*
X258718Y144717D01*
X260100Y148054D01*
X260100Y151666D01*
X258718Y155003D01*
X256163Y157558D01*
X252826Y158940D01*
X249214Y158940D01*
X245877Y157558D01*
X243322Y155003D01*
X241940Y151666D01*
X241940Y148054D01*
X243322Y144717D01*
X245877Y142162D01*
X249214Y140780D01*
G37*
G36*
X198052Y147828D02*
X198052Y140324D01*
X201451Y141732D01*
X204148Y144429D01*
X205556Y147828D01*
X198052Y147828D01*
G37*
G36*
X190589Y141732D02*
X193988Y140324D01*
X193988Y147828D01*
X186484Y147828D01*
X187892Y144429D01*
X190589Y141732D01*
G37*
G36*
X141997Y105280D02*
X145331Y105280D01*
X148411Y106556D01*
X150768Y108913D01*
X152044Y111993D01*
X152044Y115327D01*
X150768Y118407D01*
X148411Y120764D01*
X145331Y122040D01*
X141997Y122040D01*
X138917Y120764D01*
X136560Y118407D01*
X135284Y115327D01*
X135284Y111993D01*
X136560Y108913D01*
X138917Y106556D01*
X141997Y105280D01*
G37*
G36*
X102473Y105280D02*
X105807Y105280D01*
X108887Y106556D01*
X111244Y108913D01*
X112520Y111993D01*
X112520Y115327D01*
X111244Y118407D01*
X108887Y120764D01*
X105807Y122040D01*
X102473Y122040D01*
X99393Y120764D01*
X97036Y118407D01*
X95760Y115327D01*
X95760Y111993D01*
X97036Y108913D01*
X99393Y106556D01*
X102473Y105280D01*
G37*
G36*
X23733Y95120D02*
X27067Y95120D01*
X30147Y96396D01*
X32504Y98753D01*
X33780Y101833D01*
X33780Y105167D01*
X32504Y108247D01*
X30147Y110604D01*
X27067Y111880D01*
X23733Y111880D01*
X20653Y110604D01*
X18296Y108247D01*
X17020Y105167D01*
X17020Y101833D01*
X18296Y98753D01*
X20653Y96396D01*
X23733Y95120D01*
G37*
G36*
X627564Y65532D02*
X635068Y65532D01*
X635068Y73036D01*
X631669Y71628D01*
X628972Y68931D01*
X627564Y65532D01*
G37*
G36*
X639132Y65532D02*
X646636Y65532D01*
X645228Y68931D01*
X642531Y71628D01*
X639132Y73036D01*
X639132Y65532D01*
G37*
G36*
X331312Y52832D02*
X340868Y52832D01*
X340868Y62388D01*
X340595Y62388D01*
X336336Y60624D01*
X333076Y57364D01*
X331312Y53105D01*
X331312Y52832D01*
G37*
G36*
X344932Y52832D02*
X354488Y52832D01*
X354488Y53105D01*
X352724Y57364D01*
X349464Y60624D01*
X345205Y62388D01*
X344932Y62388D01*
X344932Y52832D01*
G37*
G36*
X391496Y39720D02*
X395904Y39720D01*
X399976Y41407D01*
X403093Y44524D01*
X404780Y48596D01*
X404780Y53004D01*
X403093Y57076D01*
X399976Y60193D01*
X395904Y61880D01*
X391496Y61880D01*
X387424Y60193D01*
X384307Y57076D01*
X382620Y53004D01*
X382620Y48596D01*
X384307Y44524D01*
X387424Y41407D01*
X391496Y39720D01*
G37*
G36*
X639132Y61468D02*
X639132Y53964D01*
X642531Y55372D01*
X645228Y58069D01*
X646636Y61468D01*
X639132Y61468D01*
G37*
G36*
X631669Y55372D02*
X635068Y53964D01*
X635068Y61468D01*
X627564Y61468D01*
X628972Y58069D01*
X631669Y55372D01*
G37*
G36*
X492187Y22448D02*
X498413Y22448D01*
X504166Y24831D01*
X508569Y29234D01*
X509495Y31470D01*
X509640Y31696D01*
X509886Y31873D01*
X510181Y31940D01*
X510480Y31887D01*
X510734Y31722D01*
X510824Y31588D01*
X514136Y28276D01*
X518395Y26512D01*
X518668Y26512D01*
X518668Y49688D01*
X518395Y49688D01*
X514136Y47924D01*
X510835Y44623D01*
X510759Y44505D01*
X510513Y44327D01*
X510218Y44260D01*
X509919Y44313D01*
X509665Y44478D01*
X509495Y44730D01*
X508569Y46966D01*
X504166Y51369D01*
X498413Y53752D01*
X492187Y53752D01*
X486434Y51369D01*
X482031Y46966D01*
X479648Y41213D01*
X479648Y34987D01*
X482031Y29234D01*
X486434Y24831D01*
X492187Y22448D01*
G37*
G36*
X16352Y42672D02*
X25908Y42672D01*
X25908Y52228D01*
X25635Y52228D01*
X21376Y50464D01*
X18116Y47204D01*
X16352Y42945D01*
X16352Y42672D01*
G37*
G36*
X29972Y42672D02*
X39528Y42672D01*
X39528Y42945D01*
X37764Y47204D01*
X34504Y50464D01*
X30245Y52228D01*
X29972Y52228D01*
X29972Y42672D01*
G37*
G36*
X51136Y29560D02*
X55544Y29560D01*
X59616Y31247D01*
X62733Y34364D01*
X64420Y38436D01*
X64420Y42844D01*
X62733Y46916D01*
X59616Y50033D01*
X55544Y51720D01*
X51136Y51720D01*
X47064Y50033D01*
X43947Y46916D01*
X42260Y42844D01*
X42260Y38436D01*
X43947Y34364D01*
X47064Y31247D01*
X51136Y29560D01*
G37*
G36*
X115412Y40132D02*
X124968Y40132D01*
X124968Y49688D01*
X124695Y49688D01*
X120436Y47924D01*
X117176Y44664D01*
X115412Y40405D01*
X115412Y40132D01*
G37*
G36*
X129032Y40132D02*
X138588Y40132D01*
X138588Y40405D01*
X136824Y44664D01*
X133564Y47924D01*
X129305Y49688D01*
X129032Y49688D01*
X129032Y40132D01*
G37*
G36*
X522732Y40132D02*
X532288Y40132D01*
X532288Y40405D01*
X530524Y44664D01*
X527264Y47924D01*
X523005Y49688D01*
X522732Y49688D01*
X522732Y40132D01*
G37*
G36*
X150196Y27020D02*
X154604Y27020D01*
X158676Y28707D01*
X161793Y31824D01*
X163480Y35896D01*
X163480Y40304D01*
X161793Y44376D01*
X158676Y47493D01*
X154604Y49180D01*
X150196Y49180D01*
X146124Y47493D01*
X143007Y44376D01*
X141320Y40304D01*
X141320Y35896D01*
X143007Y31824D01*
X146124Y28707D01*
X150196Y27020D01*
G37*
G36*
X344932Y39212D02*
X345205Y39212D01*
X349464Y40976D01*
X352724Y44236D01*
X354488Y48495D01*
X354488Y48768D01*
X344932Y48768D01*
X344932Y39212D01*
G37*
G36*
X340595Y39212D02*
X340868Y39212D01*
X340868Y48768D01*
X331312Y48768D01*
X331312Y48495D01*
X333076Y44236D01*
X336336Y40976D01*
X340595Y39212D01*
G37*
G36*
X29972Y29052D02*
X30245Y29052D01*
X34504Y30816D01*
X37764Y34076D01*
X39528Y38335D01*
X39528Y38608D01*
X29972Y38608D01*
X29972Y29052D01*
G37*
G36*
X25635Y29052D02*
X25908Y29052D01*
X25908Y38608D01*
X16352Y38608D01*
X16352Y38335D01*
X18116Y34076D01*
X21376Y30816D01*
X25635Y29052D01*
G37*
G36*
X522732Y26512D02*
X523005Y26512D01*
X527264Y28276D01*
X530524Y31536D01*
X532288Y35795D01*
X532288Y36068D01*
X522732Y36068D01*
X522732Y26512D01*
G37*
G36*
X129032Y26512D02*
X129305Y26512D01*
X133564Y28276D01*
X136824Y31536D01*
X138588Y35795D01*
X138588Y36068D01*
X129032Y36068D01*
X129032Y26512D01*
G37*
G36*
X124695Y26512D02*
X124968Y26512D01*
X124968Y36068D01*
X115412Y36068D01*
X115412Y35795D01*
X117176Y31536D01*
X120436Y28276D01*
X124695Y26512D01*
G37*
%LPD*%
D10*
X469900Y246380D03*
X495400Y266700D03*
X444400Y266700D03*
D11*
X60960Y215900D03*
X80010Y203200D03*
X80010Y228600D03*
D12*
X134620Y222880D03*
X134620Y295280D03*
X104140Y113660D03*
X104140Y186060D03*
X143664Y186060D03*
X143664Y113660D03*
X25400Y175900D03*
X25400Y103500D03*
X254640Y391160D03*
X182240Y391160D03*
X249560Y231140D03*
X177160Y231140D03*
X112400Y431800D03*
X40000Y431800D03*
X239400Y497840D03*
X167000Y497840D03*
D13*
X495300Y38100D03*
X520700Y38100D03*
X127000Y38100D03*
X152400Y38100D03*
X27940Y40640D03*
X53340Y40640D03*
D14*
X165700Y444500D03*
X240700Y444500D03*
D15*
X218440Y350520D03*
D13*
X292100Y50800D03*
X342900Y50800D03*
X393700Y50800D03*
X444500Y50800D03*
D16*
X300160Y327660D03*
X355160Y327660D03*
X310320Y454660D03*
X365320Y454660D03*
X582100Y63500D03*
X637100Y63500D03*
X582100Y330200D03*
X637100Y330200D03*
X569400Y190500D03*
X624400Y190500D03*
X569400Y457200D03*
X624400Y457200D03*
D14*
X63500Y367700D03*
X63500Y292700D03*
D12*
X177160Y266700D03*
X249560Y266700D03*
D16*
X388180Y167640D03*
X333180Y167640D03*
X196020Y149860D03*
X251020Y149860D03*
D17*
X167640Y345440D03*
X195580Y48260D03*
X15240Y485140D03*
X142240Y502920D03*
X15240Y398780D03*
X15240Y307340D03*
X15240Y226060D03*
X15240Y160020D03*
X15240Y86360D03*
X17780Y17780D03*
X101600Y15240D03*
X215900Y15240D03*
X317500Y15240D03*
X414020Y17780D03*
X508000Y15240D03*
X528320Y134620D03*
X528320Y193040D03*
X528320Y243840D03*
X530860Y302260D03*
X528320Y505460D03*
X403860Y505460D03*
X403860Y325120D03*
X464820Y154940D03*
X378460Y254000D03*
X269240Y269240D03*
X312420Y251460D03*
X180340Y284480D03*
X223520Y248920D03*
X259080Y170180D03*
X261620Y129540D03*
X198120Y210820D03*
X149860Y287020D03*
X124460Y200660D03*
X104140Y238760D03*
X48260Y198120D03*
X121920Y411480D03*
X185420Y469900D03*
X137160Y449580D03*
X251460Y419100D03*
X251460Y368300D03*
X251460Y299720D03*
X233680Y342900D03*
X154940Y378460D03*
X132080Y317500D03*
X467360Y116840D03*
X472440Y63500D03*
X401320Y226060D03*
X307340Y223520D03*
X274320Y223520D03*
X408940Y281940D03*
X240025Y293666D03*
D18*
X209254Y293666D01*
X205740Y297180D01*
X205740Y337820D01*
X218440Y350520D01*
D17*
X238760Y325120D03*
D19*
X292100Y319600D02*
X292100Y50800D01*
X292100Y319600D02*
X300160Y327660D01*
X300160Y444500D01*
X310320Y454660D01*
X300160Y327660D02*
X297620Y325120D01*
X238760Y325120D01*
D20*
X444500Y73660D02*
X444500Y50800D01*
X444500Y73660D02*
X462280Y91440D01*
X554160Y91440D01*
X582100Y63500D01*
X582100Y177800D01*
X569400Y190500D01*
X541460Y218440D01*
X487680Y218440D01*
X469900Y236220D01*
X469900Y246380D01*
X469900Y299720D01*
X500380Y330200D01*
X582100Y330200D01*
X582100Y444500D01*
X569400Y457200D01*
M02*
