M48
;GenerationSoftware,Autodesk,EAGLE,9.7.0*%
;CreationDate,2024-09-25T04:00:52Z*%
FMAT,2
ICI,OFF
METRIC,TZ,000.000
T9C0.350
T8C0.381
T7C0.660
T6C0.800
T5C0.900
T4C0.950
T3C1.200
T2C1.400
T1C3.850
%
G90
M71
T1
X46990Y44670
T2
X49540Y26670
X46990Y24638
X44440Y26670
T3
X34290Y5080
X29210Y5080
X39370Y5080
X44450Y5080
X5334Y4064
X2794Y4064
X15240Y3810
X12700Y3810
X52070Y3810
X49530Y3810
T4
X8001Y22860
X8001Y20320
X6096Y21590
T5
X24070Y44450
X16570Y44450
X6350Y29270
X6350Y36770
T6
X58210Y33020
X33318Y16764
X38818Y16764
X62440Y45720
X56940Y45720
X62440Y19050
X56940Y19050
X63710Y33020
X63710Y6350
X58210Y6350
X36532Y45466
X31032Y45466
X35516Y32766
X30016Y32766
X19602Y14986
X25102Y14986
T7
X13462Y22288
X13462Y29528
X10414Y11366
X10414Y18606
X14366Y18606
X14366Y11366
X2540Y17590
X2540Y10350
X18224Y39116
X24956Y23114
X17716Y23114
X11240Y43180
X4000Y43180
X23940Y49784
X16700Y49784
X17716Y26670
X24956Y26670
X25464Y39116
T8
X21844Y35052
T9
X19558Y4826
X1524Y48514
X14224Y50292
X1524Y39878
X1524Y30734
X1524Y22606
X1524Y16002
X1524Y8636
X1778Y1778
X10160Y1524
X21590Y1524
X31750Y1524
X50800Y1524
X52832Y13462
X52832Y19304
X52832Y24384
X23368Y34290
X23876Y32512
X24002Y29367
X30734Y22352
X40132Y22606
X47244Y6350
X46736Y11684
X13208Y31750
X15494Y37846
X25146Y29972
X25146Y36830
X16764Y34544
X25146Y41910
X13716Y44958
X18542Y46990
X12192Y41148
X4826Y19812
X10414Y23876
X12446Y20066
X14986Y28702
X19812Y21082
X26162Y12954
X41402Y1778
X25908Y17018
X22352Y24892
X18034Y28448
X31242Y25146
X26924Y26924
X37846Y25400
X46482Y15494
X40894Y28194
X27432Y22352
X40386Y32512
X40386Y50546
X52832Y50546
X53086Y30226
M30