G04 EAGLE Gerber RS-274X export*
G75*
%MOMM*%
%FSLAX34Y34*%
%LPD*%
%INSoldermask Top*%
%IPPOS*%
%AMOC8*
5,1,8,0,0,1.08239X$1,22.5*%
G01*
G04 Define Apertures*
%ADD10R,10.603200X16.203200*%
%ADD11C,2.303200*%
%ADD12C,4.053200*%
%ADD13C,1.762800*%
%ADD14R,3.666600X1.834600*%
%ADD15R,2.175400X0.791400*%
%ADD16R,2.489200X3.753200*%
%ADD17C,1.472800*%
%ADD18C,2.012800*%
%ADD19C,1.712800*%
%ADD20C,1.612800*%
%ADD21C,0.858000*%
D10*
X469900Y396700D03*
D11*
X469900Y246380D03*
X495400Y266700D03*
X444400Y266700D03*
D12*
X469900Y446700D03*
D13*
X60960Y215900D03*
X80010Y203200D03*
X80010Y228600D03*
D14*
X495300Y193760D03*
X495300Y136440D03*
D15*
X168334Y334010D03*
X168334Y321310D03*
X168334Y308610D03*
X168334Y295910D03*
X217746Y295910D03*
X217746Y308610D03*
X217746Y321310D03*
X217746Y334010D03*
D16*
X193040Y314960D03*
D17*
X134620Y222880D03*
X134620Y295280D03*
X104140Y113660D03*
X104140Y186060D03*
X143664Y186060D03*
X143664Y113660D03*
X25400Y175900D03*
X25400Y103500D03*
X254640Y391160D03*
X182240Y391160D03*
X249560Y231140D03*
X177160Y231140D03*
X112400Y431800D03*
X40000Y431800D03*
X239400Y497840D03*
X167000Y497840D03*
D18*
X495300Y38100D03*
X520700Y38100D03*
X127000Y38100D03*
X152400Y38100D03*
X27940Y40640D03*
X53340Y40640D03*
D19*
X165700Y444500D03*
X240700Y444500D03*
D18*
X292100Y50800D03*
X342900Y50800D03*
X393700Y50800D03*
X444500Y50800D03*
D20*
X300160Y327660D03*
X355160Y327660D03*
X310320Y454660D03*
X365320Y454660D03*
X582100Y63500D03*
X637100Y63500D03*
X582100Y330200D03*
X637100Y330200D03*
X569400Y190500D03*
X624400Y190500D03*
X569400Y457200D03*
X624400Y457200D03*
D19*
X63500Y367700D03*
X63500Y292700D03*
D17*
X177160Y266700D03*
X249560Y266700D03*
D20*
X388180Y167640D03*
X333180Y167640D03*
X196020Y149860D03*
X251020Y149860D03*
D21*
X167640Y345440D03*
X195580Y48260D03*
X15240Y485140D03*
X142240Y502920D03*
X15240Y398780D03*
X15240Y307340D03*
X15240Y226060D03*
X15240Y160020D03*
X15240Y86360D03*
X17780Y17780D03*
X101600Y15240D03*
X215900Y15240D03*
X317500Y15240D03*
X414020Y17780D03*
X508000Y15240D03*
X528320Y134620D03*
X528320Y193040D03*
X528320Y243840D03*
X530860Y302260D03*
X528320Y505460D03*
X403860Y505460D03*
X403860Y325120D03*
X464820Y154940D03*
X378460Y254000D03*
X269240Y269240D03*
X312420Y251460D03*
X180340Y284480D03*
X223520Y248920D03*
X259080Y170180D03*
X261620Y129540D03*
X198120Y210820D03*
X149860Y287020D03*
X124460Y200660D03*
X104140Y238760D03*
X48260Y198120D03*
X121920Y411480D03*
X185420Y469900D03*
X137160Y449580D03*
X251460Y419100D03*
X251460Y368300D03*
X251460Y299720D03*
X233680Y342900D03*
X154940Y378460D03*
X132080Y317500D03*
X467360Y116840D03*
X472440Y63500D03*
X401320Y226060D03*
X307340Y223520D03*
X274320Y223520D03*
X408940Y281940D03*
X240025Y293666D03*
X238760Y325120D03*
M02*
